<?xml version="1.0" encoding="iso-8859-1"?>
<!-- Generator: Adobe Illustrator 21.0.0, SVG Export Plug-In . SVG Version: 6.00 Build 0)  -->
<svg version="1.1" id="Capa_1" xmlns="http://www.w3.org/2000/svg" xmlns:xlink="http://www.w3.org/1999/xlink" x="0px" y="0px"
	 viewBox="0 0 617.557 617.557" style="enable-background:new 0 0 617.557 617.557;" xml:space="preserve">
<g>
	<g>
		<g id="filled_outline_30_">
			<path style="fill:#D0D7DF;" d="M567.824,380.825H61.755V236.731h399.944c27.296,0,53.48,10.848,72.778,30.147l21.316,21.316
				l32.318,19.391c11.878,7.122,19.144,19.957,19.144,33.811l0,0C607.254,363.164,589.603,380.825,567.824,380.825L567.824,380.825z
				"/>
			<polygon style="fill:#808B96;" points="61.755,329.363 10.292,339.656 10.292,277.901 61.755,288.193 			"/>
			<polygon style="fill:#808B96;" points="216.141,236.731 72.047,236.731 20.585,113.222 72.047,113.222 			"/>
			<path style="fill:#C3C9D1;" d="M144.094,504.335h-82.34V349.948h302.536c23.189,0,44.834,11.589,57.699,30.877l0,0
				l-133.802,41.17L144.094,504.335z"/>
			<rect x="61.755" y="391.118" style="fill:#B7BDC4;" width="51.462" height="113.217"/>
			<rect x="61.755" y="442.58" style="fill:#808B96;" width="51.462" height="20.585"/>
			<path style="fill:#576573;" d="M588.11,307.584l-22.026-13.216v34.994h-72.047v51.462h73.787c21.779,0,39.43-17.652,39.43-39.43
				C607.254,327.541,599.988,314.707,588.11,307.584z"/>
			<polygon style="fill:#576573;" points="59.182,205.854 72.047,236.731 216.141,236.731 180.118,205.854 			"/>
			<path style="fill:#C3C9D1;" d="M164.679,257.316c-0.041-7.246-2.007-14.358-5.712-20.585H61.755v61.755h61.755
				C146.245,298.486,164.679,280.052,164.679,257.316z"/>
			<path style="fill:#D0D7DF;" d="M113.217,277.901H51.462v-61.755h61.755c17.055,0,30.877,13.823,30.877,30.877l0,0
				C144.094,264.068,130.271,277.901,113.217,277.901z"/>
			<rect x="10.292" y="216.146" style="fill:#A8B2BF;" width="41.17" height="61.755"/>
			<polygon style="fill:#576573;" points="41.17,284.077 41.17,333.48 61.755,329.363 61.755,288.193 			"/>
			<path d="M593.411,298.754l-31.238-18.732l-20.42-20.42c-21.182-21.295-50.011-33.245-80.055-33.162H219.939L78.747,105.41
				c-1.863-1.606-4.24-2.48-6.7-2.48H20.585c-5.681,0-10.292,4.611-10.292,10.292c0,1.359,0.268,2.707,0.793,3.963l36.95,88.669
				H10.292C4.611,205.854,0,210.465,0,216.146v123.509c0,5.681,4.611,10.292,10.292,10.292c0.69,0,1.379-0.072,2.058-0.206
				l39.111-7.822v162.415c0,5.681,4.611,10.292,10.292,10.292h82.34c1.801,0.01,3.582-0.463,5.146-1.359l143.065-81.773
				l131.239-40.377h144.279c27.46,0.01,49.733-22.252,49.733-49.712C617.567,323.929,608.397,307.739,593.411,298.754z
				 M195.556,247.024h247.019v30.877H195.556V247.024z M68.239,123.514l120.113,102.924h-39.698
				c-7.318-12.67-20.801-20.503-35.437-20.585H70.328l-34.305-82.34C36.024,123.514,68.239,123.514,68.239,123.514z M61.755,267.609
				v-41.17h51.462c11.373,0,20.585,9.212,20.585,20.585c0,11.373-9.212,20.585-20.585,20.585H61.755z M20.585,226.439H41.17v41.17
				H20.585V226.439z M20.585,327.099v-36.641l30.877,6.175v24.311L20.585,327.099z M102.924,442.58H72.047v-41.17h30.877V442.58z
				 M72.047,494.042v-30.877h30.877v30.877H72.047z M285.162,412.156c-0.72,0.226-1.41,0.525-2.059,0.906l-141.748,80.981h-17.847
				V391.118c0-5.681-4.611-10.292-10.292-10.292h-41.17v-20.585h292.305c14.687-0.01,28.85,5.465,39.708,15.346L285.162,412.156z
				 M364.353,339.656H72.047v-51.462h41.17c22.736,0,41.17-18.434,41.17-41.17h20.585v41.17c0,5.681,4.611,10.292,10.292,10.292
				h267.604c5.681,0,10.292-4.611,10.292-10.292v-41.098c24.064,0.288,47.057,10.004,64.04,27.059l3.746,3.746h-47.201v20.585
				h69.196l2.851,1.709v18.876h-61.755c-5.681,0-10.292,4.611-10.292,10.292v41.17H427.26
				C412.202,351.049,388.972,339.645,364.353,339.656z M567.875,370.533H504.33v-30.877h61.755c5.681,0,10.292-4.611,10.292-10.292
				v-16.818l6.433,3.86c13.802,8.275,18.279,26.174,10.004,39.976c-5.27,8.779-14.749,14.152-24.99,14.152H567.875z"/>
		</g>
	</g>
</g>
<g>
</g>
<g>
</g>
<g>
</g>
<g>
</g>
<g>
</g>
<g>
</g>
<g>
</g>
<g>
</g>
<g>
</g>
<g>
</g>
<g>
</g>
<g>
</g>
<g>
</g>
<g>
</g>
<g>
</g>
</svg>
